{
  "title": "Fast.&amp;.Furious.7.2015.TS.XViD NO1KNOWS",
  "uid": 11835723,
  "size": 1718377455,
  "categoryP": "video",
  "categoryS": "movies",
  "magnet": "?xt=urn:btih:cbfd19ebb5f12283a0d54a00cb1ed6c500c316d0&amp;dn=+Fast.%26amp%3B.Furious.7.2015.TS.XViD+NO1KNOWS&amp;tr=udp%3A%2F%2Ftracker.openbittorrent.com%3A80&amp;tr=udp%3A%2F%2Fopen.demonii.com%3A1337&amp;tr=udp%3A%2F%2Ftracker.coppersurfer.tk%3A6969&amp;tr=udp%3A%2F%2Fexodus.desync.com%3A6969",
  "seeders": 98,
  "leechers": 34,
  "uploader": "makintos13",
  "files": 4,
  "time": 1429721280,
  "description": "screens:\n &lt;a href=&quot;\nhttp://imgmak.com/kD&quot; rel=&quot;nofollow&quot; target=&quot;_NEW&quot;&gt;\nhttp://imgmak.com/kD&lt;/a&gt;\n &lt;a href=&quot;\nhttp://imgmak.com/kf&quot; rel=&quot;nofollow&quot; target=&quot;_NEW&quot;&gt;\nhttp://imgmak.com/kf&lt;/a&gt;\n &lt;a href=&quot;\nhttp://imgmak.com/kE&quot; rel=&quot;nofollow&quot; target=&quot;_NEW&quot;&gt;\nhttp://imgmak.com/kE&lt;/a&gt;\n &lt;a href=&quot;\nhttp://imgmak.com/kh&quot; rel=&quot;nofollow&quot; target=&quot;_NEW&quot;&gt;\nhttp://imgmak.com/kh&lt;/a&gt;\n\nFormat : AVI\nFormat/Info : Audio Video Interleave\nFile size : 1.58 GiB\nDuration : 2h 11mn\nOverall bit rate : 1 723 Kbps\nWriting library : VirtualDub build 35491/release\n\nVideo\nID : 0\nFormat : MPEG-4 Visual\nFormat profile : Advanced Simple@L5\nFormat settings, BVOP : 2\nFormat settings, QPel : No\nFormat settings, GMC : No warppoints\nFormat settings, Matrix : Default (H.263)\nMuxing mode : Packed bitstream\nCodec ID : XVID\nCodec ID/Hint : XviD\nDuration : 2h 11mn\nBit rate : 1 520 Kbps\nWidth : 720 pixels\nHeight : 344 pixels\nDisplay aspect ratio : 2.093\nFrame rate : 30.000 fps\nColor space : YUV\nChroma subsampling : 4:2:0\nBit depth : 8 bits\nScan type : Progressive\nCompression mode : Lossy\nBits/(Pixel*Frame) : 0.205\nStream size : 1.39 GiB (88%)\nWriting library : XviD 64\n\nAudio\nID : 1\nFormat : AC-3\nFormat/Info : Audio Coding 3\nMode extension : CM (complete main)\nFormat settings, Endianness : Big\nCodec ID : 2000\nDuration : 2h 11mn\nBit rate mode : Constant\nBit rate : 192 Kbps\nChannel(s) : 2 channels\nChannel positions : Front: L R\nSampling rate : 48.0 KHz\nBit depth : 16 bits\nCompression mode : Lossy\nStream size : 180 MiB (11%)\nAlignment : Aligned on interleaves\nInterleave, duration : 33 ms (1.00 video frame)\nInterleave, preload duration : 512 ms",
  "parsed": {
    "xt": "urn:btih:cbfd19ebb5f12283a0d54a00cb1ed6c500c316d0",
    "dn": " Fast.&amp;.Furious.7.2015.TS.XViD NO1KNOWS",
    "tr": [
      "udp://exodus.desync.com:6969",
      "udp://open.demonii.com:1337",
      "udp://tracker.coppersurfer.tk:6969",
      "udp://tracker.openbittorrent.com:80"
    ],
    "infoHash": "cbfd19ebb5f12283a0d54a00cb1ed6c500c316d0",
    "infoHashBuffer": {
      "type": "Buffer",
      "data": [
        203,
        253,
        25,
        235,
        181,
        241,
        34,
        131,
        160,
        213,
        74,
        0,
        203,
        30,
        214,
        197,
        0,
        195,
        22,
        208
      ]
    },
    "name": " Fast.&amp;.Furious.7.2015.TS.XViD NO1KNOWS",
    "announce": [
      "udp://exodus.desync.com:6969",
      "udp://open.demonii.com:1337",
      "udp://tracker.coppersurfer.tk:6969",
      "udp://tracker.openbittorrent.com:80"
    ],
    "urlList": []
  },
  "previous": 11,
  "peers": 8,
  "last_updated": "2016-12-27T13:16:09.939Z"
}